<?xml version="1.0" encoding="utf-8"?>
<!-- Generator: Adobe Illustrator 27.1.1, SVG Export Plug-In . SVG Version: 6.00 Build 0)  -->
<svg version="1.1" id="Layer_1" xmlns="http://www.w3.org/2000/svg" xmlns:xlink="http://www.w3.org/1999/xlink" x="0px" y="0px"
	 viewBox="0 0 248.8 362.1" style="enable-background:new 0 0 248.8 362.1;" xml:space="preserve">
<style type="text/css">
	.st0{fill:none;stroke:#fff;stroke-width:3;stroke-miterlimit:10;}
</style>
<g>
	<path d="M103.2,193.2c-28.5,0-50.9-15.2-50.9-34.5c0-12.2,9.9-22.1,22.1-22.1s22.1,9.9,22.1,22.1c0,8.7-4.4,13.4-7.7,16.8
		c-2.5,2.7-3.8,4.1-3.4,6.2c0.6,3.1,5.6,6.5,17.8,6.5c8,0,17-6.5,17-15.9c0-12.4-14.7-23.3-30.4-34.7
		c-18.5-13.6-37.6-27.6-37.6-47.3c0-22.4,25.8-32.7,49.8-32.7c6.4,0,11.5,0.7,16.6,1.4c4.6,0.6,9,1.2,13.9,1.2
		c4.4,0,7.1-0.7,8.9-2.2l0.6-0.5h3.9v39.6h-4.8l-0.3-1.6c-3.1-16-16.7-32.6-34.2-32.6c-4.8,0-16.2,1.4-17,13.9
		c-0.9,13.3,13.5,23.7,28.8,34.6c16.8,12.1,34.2,24.5,35.9,43.3c0.7,7.8-2.2,15.4-8.1,21.9C136.8,186.9,120.3,193.2,103.2,193.2z"/>
	<path d="M103.2,191.2c-26.5,0-48.9-14.1-48.9-32.5c0-11.1,9-20.1,20.1-20.1s20.1,9,20.1,20.1c0,14.1-12.4,16.2-11.1,23.3
		c0.9,4.7,7.5,8.1,19.8,8.1c9.6,0,19-7.7,19-17.9c0-28.4-67.9-46.7-67.9-82c0-22.6,27.5-30.7,47.8-30.7c12,0,19.9,2.6,30.5,2.6
		c4.1,0,7.7-0.6,10.2-2.6h1.1v35.6c0,0-0.6,0-1.1,0c-3-15.8-16.7-34.2-36.1-34.2c-9.6,0-18.2,4.5-19,15.8
		c-2.1,29.3,61.5,43.1,64.7,78.3C154,175.2,130.3,191.2,103.2,191.2z"/>
	<g>
		<path d="M187.1,161.9v35.6H186c-5.1-19.8-23.1-34.4-44.6-34.4h-1.9v64.1c13.7,0,25.2-9.4,28.6-22h1.1v45.1h-1.1
			c-3.4-12.6-14.9-22-28.6-22v45.1v7.7c0,6.2,5.1,11.3,11.5,11.3v1.1H95.1v-1.1c6.2,0,11.3-5.1,11.3-11.3V174.3
			c0-6.2-5.1-11.3-11.3-11.3v-1.1h53.6H187.1z"/>
	</g>
	<path d="M197.8,228.3c-13.7,0-25.2,9.4-28.6,22h-1.1v-45.1h1.1c3.4,12.6,14.9,22,28.6,22"/>
	<g>
		<path d="M7.2,136.1h11.9v1.2H8.3v2.8H7.2V136.1z"/>
		<path d="M13.2,129.8c-3.8,0-6.1-2-6.1-4.7s2.3-4.8,6.1-4.8c3.8,0,6.1,2,6.1,4.8S17,129.8,13.2,129.8z M13.2,121.6
			c-3.2,0-4.9,1.4-4.9,3.5s1.8,3.5,4.9,3.5s4.9-1.4,4.9-3.5S16.4,121.6,13.2,121.6z"/>
		<path d="M13.1,115.1c-3.8-0.1-6-2.1-5.9-4.9c0.1-2.8,2.4-4.7,6.2-4.6c3.8,0.1,6,2.2,5.9,4.9C19.2,113.3,16.9,115.2,13.1,115.1z
			 M13.3,106.9c-3.2-0.1-5,1.3-5,3.4s1.7,3.5,4.8,3.6c3.2,0.1,5-1.3,5-3.4C18.2,108.4,16.5,107,13.3,106.9z"/>
		<path d="M11,99.7c-1.9-0.3-3-1.6-2.7-3.2c0.3-1.6,1.7-2.4,3.6-2.1c1.9,0.3,3,1.6,2.7,3.2C14.4,99.2,12.9,100,11,99.7z M11.8,95.3
			C10.2,95,9.2,95.6,9,96.7c-0.2,1.1,0.6,2,2.1,2.2c1.5,0.3,2.6-0.3,2.7-1.4C14.1,96.4,13.3,95.5,11.8,95.3z M9.6,89.4l0.2-1
			l10.3,10l-0.2,1L9.6,89.4z M17.8,93.5c-1.9-0.3-3-1.6-2.7-3.2c0.3-1.6,1.7-2.4,3.6-2.1c1.9,0.3,3,1.6,2.7,3.2
			C21.1,92.9,19.7,93.8,17.8,93.5z M18.5,89c-1.5-0.3-2.6,0.3-2.7,1.4c-0.2,1.1,0.6,2,2.1,2.2c1.5,0.3,2.6-0.3,2.7-1.4
			C20.8,90.1,20,89.3,18.5,89z"/>
		<path d="M18.4,62.3l9,9.4L27,72.9l-13,0.4l0.5-1.3l11.3-0.3l-7.8-8.2L18.4,62.3z"/>
		<path d="M34.9,54.8l0.9,0.5l-4.2,7.3l-10.3-5.9l4.1-7.1l0.9,0.5l-3.4,6l3.7,2.1l3.1-5.3l0.9,0.5l-3.1,5.3l3.8,2.2L34.9,54.8z"/>
		<path d="M39.6,40.1l0.7-1l3.6,2.8c0.1,1.5-0.5,3.1-1.5,4.4c-2.2,2.9-5.9,3.4-8.6,1.3s-3.2-5.8-0.9-8.7c1.1-1.4,2.5-2.3,4.1-2.4
			l0.2,1.1c-1.4,0.2-2.4,0.9-3.3,2c-1.8,2.3-1.5,5.3,0.8,7.1c2.2,1.7,5.2,1.3,7-1c0.7-0.9,1.1-1.9,1.2-3L39.6,40.1z"/>
		<path d="M52.6,30.5l-4.8,4.6l1.2,3.3l-0.9,0.9L43.7,27l0.9-0.9l12.2,4.8l-1,0.9L52.6,30.5z M51.5,30.1L45,27.5l2.4,6.6L51.5,30.1z
			"/>
		<path d="M61.7,12.2l7,9.6l-0.8,0.6L56,19.2l5.7,7.8l-1,0.7l-7-9.6l0.8-0.6l11.9,3.3L60.7,13L61.7,12.2z"/>
	</g>
	<path class="st0" d="M86.7,12.6c3.9-1.5,7.9-2.8,12.1-3.9"/>
	<path class="st0" d="M168.5,348.3c-13,5.5-27.4,8.6-42.4,8.6h0c-60,0-109.2-49.1-109.2-109.2v-89.8"/>
	<path class="st0" d="M98.7,8.7c8.7-2.3,17.9-3.5,27.3-3.5h0c60,0,109.2,49.1,109.2,109.2v57.8"/>
	<g>
		<path d="M241.5,195.9H231v-1.1h8.4l-7.1-4.1v-0.5l7-4.1H231V185h10.5v0.9l-7.8,4.6l7.8,4.5V195.9z"/>
		<path d="M233.8,208.9V203l-2.8-1.3v-1.2l10.5,4.8v1.1l-10.5,4.8v-1.2L233.8,208.9z M234.7,208.5l5.6-2.5l-5.6-2.5V208.5z"/>
		<path d="M241.5,216.1v4.3c0,3.4-2.2,5.6-5.2,5.6s-5.2-2.3-5.2-5.6v-4.3H241.5z M232,220.3c0,2.8,1.8,4.6,4.3,4.6
			c2.5,0,4.3-1.8,4.3-4.6v-3.1H232V220.3z"/>
		<path d="M232,238.9h-1v-7.4h10.5v7.2h-1v-6.1h-3.7v5.4h-0.9v-5.4H232V238.9z"/>
		<path d="M240,266.6l-10.1-4.7l0.1-1.2l9.2-2.1l-8.6-4l0.1-1.1l10.8-2.4l-0.1,1.1l-9.3,2l8.6,4.1l-0.1,1l-9.4,2.1l8.7,4L240,266.6z
			"/>
		<path d="M238.5,272.4l-0.3,1.1l-10.2-2.4l0.3-1.1L238.5,272.4z"/>
		<path d="M234.9,282l1.2-3.5l0.9,0.3l-2.7,8.1l-0.9-0.3l1.2-3.5l-9.1-3l0.3-1.1L234.9,282z"/>
		<path d="M228.4,300.1l-9.5-4.5l0.5-1l4.4,2.1l2.8-5.9l-4.4-2.1l0.5-1l9.5,4.5l-0.5,1l-4.2-2l-2.8,5.9l4.2,2L228.4,300.1z"/>
		<path d="M220.8,312.7l-0.6,0.9l-7.7-5.6l-3.4,4.8l-0.8-0.6l4.1-5.7L220.8,312.7z"/>
		<path d="M210,318.5c2.3,2.1,2.3,5.3,0.2,7.7c-2.1,2.3-5.4,2.5-7.7,0.4s-2.3-5.3-0.2-7.7C204.5,316.6,207.8,316.4,210,318.5z
			 M203.3,325.8c1.8,1.7,4.5,1.6,6.2-0.3c1.7-1.9,1.6-4.5-0.2-6.2c-1.8-1.7-4.5-1.6-6.2,0.3C201.4,321.5,201.5,324.1,203.3,325.8z"
			/>
		<path d="M195.2,340l-3.2-11l0.8-0.7l10.3,5l-0.9,0.8l-9-4.4l2.8,9.6L195.2,340z"/>
		<path d="M179.4,339.3l-0.5-0.8l6.2-4.1l5.8,8.8l-6,4l-0.5-0.8l5.1-3.4l-2.1-3.1l-4.5,3l-0.5-0.8l4.5-3l-2.2-3.3L179.4,339.3z"/>
	</g>
</g>
</svg>
