<?xml version="1.0" encoding="utf-8"?>
<!-- Generator: Adobe Illustrator 27.1.1, SVG Export Plug-In . SVG Version: 6.00 Build 0)  -->
<svg version="1.1" id="Layer_1" xmlns="http://www.w3.org/2000/svg" xmlns:xlink="http://www.w3.org/1999/xlink" x="0px" y="0px"
	 viewBox="0 0 595.3 377.6" style="enable-background:new 0 0 595.3 377.6;" xml:space="preserve">
<style type="text/css">
	.st0{fill:none;}
	.st1{fill:#fff;stroke:#000;stroke-width:1.4918;stroke-linecap:round;stroke-linejoin:round;stroke-miterlimit:10;}
	.st2{fill:#fff;}
</style>
<g>
	<g>
		<path d="M389,284c0,12-2.4,23.8-6.9,34.7c-4.5,10.7-10.9,20.2-19.2,28.4c-8.1,8.1-17.8,14.5-28.3,19.1
			c-11.1,4.7-22.7,7.1-34.8,7.1c-56.6,0-90.2-59.4-136.7-72.9c-4.3,4.5-8.5,8.7-12.9,12.5c-6.8,5.7-13.1,10-19.4,12.9
			c-6.9,3.3-13.7,4.9-20.6,4.9c-12,0-23.4-4.7-31.9-13.2C69.7,309,65,297.7,65,285.7c0-12,4.7-23.4,13.2-31.9
			c8.3-8.3,19.1-12.9,30.7-13.2v-27.5c0-8.4,10.9-18.8,23.5-18.8c13.6,0,25.8,10.4,25.8,18.8c0,5.7-4.7,10.4-10.4,10.4
			c-5.7,0-10.3-4.7-10.3-10.4c0-2.8,1.1-5.2,2.8-7.1c1.7-1.9,2.9-3.9,2.9-5.7c0-4.5-7.6-5.2-10.8-5.2c-3.3,0-10.8,0.7-10.8,5.2
			c0,5.3,6.8,7.5,7.3,12.8v2.8v24.7c5.7,0,10.4-4.7,10.4-10.3h0.8v21.5h-0.8c0-5.7-4.7-10.4-10.4-10.4v35.2v3.7c0,3.2,2.4,6,5.5,6.5
			v0.8h-8.3h-2.5H112h-8.5v-0.8c3.1-0.5,5.5-3.3,5.5-6.5v-3.7v-29.8v-5.5c-23.9,0.7-43.1,20.3-43.1,44.3c0,24.4,19.9,44.3,44.3,44.3
			c12.8,0,25.4-5.6,39.4-17.8c4.3-3.6,8.4-7.7,12.7-12.1c-5.7-1.6-11.5-2.4-17.6-2.4c-12.3,0-23.8,3.5-35.1,10.8l-0.5-0.7
			c11.6-7.3,23.2-10.9,35.6-10.9c6.3,0,12.4,0.8,18.3,2.4c8-8.4,15.9-17.9,24.2-27.8c15.3-18.4,31.2-37.5,49.5-52.2
			c9.9-7.9,19.5-13.7,29.4-17.9c10.9-4.5,22.3-6.8,33.8-6.8c12.1,0,23.8,2.4,34.8,6.9c10.5,4.5,20.2,10.9,28.3,19.2
			c8.3,8.1,14.7,17.8,19.2,28.3C386.6,260.2,389,271.8,389,284z M388.2,284c0-48.9-40.9-85.3-89.7-85.3
			c-48.2,0-80.9,37.5-110.8,73.4c-8.1,9.7-16,19.1-23.9,27.5c41.5,11.3,77.7,54.9,135.9,58.7C357.2,362,388.2,324.9,388.2,284z"/>
		<path d="M210.5,284.2v0.8l-23,3.3c0,0-0.1,0-0.3,0c-1.3,0-2.4-1.1-2.4-2.4v-1.2v-2.1c-3.2,2.4-8.7,5.7-16.2,5.7
			c-8.4,0-15.9-4.8-17.9-12.3c-2.1-7.6,2.1-15.5,9.5-20c11.5-7.2,42.7-11.7,42.7-22c0-3.6-3.6-7.5-7.9-9.6
			c-5.2-2.5-11.6-3.5-18.2-2.4c-4.8,0.7-7.6,2.3-7.6,5.1c0,4.9,5.7,6.7,5.7,12.8c0,5.7-4.7,10.3-10.4,10.3
			c-5.7,0-10.3-4.5-10.3-10.3c0-10.4,12.9-17.4,22.4-18.7c6.9-1.1,13.6-0.1,18.7,2.5c5.1,2.5,9.5,7.1,9.5,13.6v2.3V259v4.7v12.5v1.5
			C205.1,280.9,207.5,283.7,210.5,284.2z M184.9,247.4c-5.5,2.5-13.6,6.8-14.4,18c-0.4,6.4,1.2,11.3,4,14.4c2.9,3.2,7.5,4,10.4,1.9
			V265v-8V248V247.4z"/>
		<path d="M279.3,286.9v0.8H271h-22.7v-0.8c3.1-0.5,5.5-3.3,5.5-6.5V241c0-6.8,6.9-8.5,6.9-13.5c0-2.9-3.7-4.7-9.1-4.7
			c-5.9,0-10.8,2-12.9,3.1v54.5c0,3.2,2.4,6,5.5,6.5v0.8h-31v-0.8c3.1-0.5,5.5-3.3,5.5-6.5v-47.5c0-3.3-2.4-6-5.5-6.5v-0.8l22.8-3.3
			c0.1,0,0.3,0,0.4,0c1.3,0,2.3,0.9,2.3,2.3v0.5c12.3-6.1,35.1-8.4,35.1,14.1v41.2C273.8,283.6,276.2,286.4,279.3,286.9z"/>
		<path d="M318.7,281.7v0.9c-3.2,2.4-8.8,5.7-16.3,5.7c-8.3,0-14.9-6.7-14.9-14.9v-2v-47.8V223H282v-0.8c10,0,19-4.7,24.7-12h0.8v12
			h8.7v0.8h-8.7v43.6v2v7.1c0,4,3.2,7.2,7.2,7.2C316.1,282.9,317.5,282.5,318.7,281.7z"/>
		<path d="M383,284.2v0.8l-23,3.3c0,0-0.1,0-0.3,0c-1.3,0-2.4-1.1-2.4-2.4v-1.2v-2.1c-3.2,2.4-8.7,5.7-16.2,5.7
			c-8.4,0-15.9-4.8-17.9-12.3c-2.1-7.6,2.1-15.5,9.5-20c11.5-7.2,42.7-11.7,42.7-22c0-3.6-3.6-7.5-7.9-9.6
			c-5.2-2.5-11.6-3.5-18.2-2.4c-4.8,0.7-7.6,2.3-7.6,5.1c0,4.9,5.7,6.7,5.7,12.8c0,5.7-4.7,10.3-10.4,10.3
			c-5.7,0-10.3-4.5-10.3-10.3c0-10.4,12.9-17.4,22.4-18.7c6.9-1.1,13.6-0.1,18.7,2.5c5.1,2.5,9.5,7.1,9.5,13.6v2.3V259v4.7v12.5v1.5
			C377.5,280.9,379.9,283.7,383,284.2z M357.4,247.4c-5.5,2.5-13.6,6.8-14.4,18c-0.4,6.4,1.2,11.3,4,14.4c2.9,3.2,7.5,4,10.4,1.9
			V265v-8V248V247.4z"/>
		<path d="M410.8,288.4c-13.6,0-25.1-7.5-25.1-17.4c0-5.6,4.7-10.3,10.3-10.3c5.7,0,10.4,4.7,10.4,10.3c0,7.2-6.3,8.3-6.3,11.7
			c0,2,2.3,4,4.9,4.4c1.7,0.3,3.1,0.4,5.7,0.4c4.8,0,8.7-3.9,8.7-8.7c0-13.3-33.8-23.8-33.8-42.4c0-10.7,12.7-15.6,22.6-15.6
			c9.6,0,13.6,3.7,19.4,3.3c1.5-0.1,2.7-0.8,3.3-1.5h0.7v21.6c0,0-0.4,0-0.7,0c-1.6-8-5.5-20.7-18.4-22.4c-4.7-0.7-8.4,1.9-8.8,7.5
			c-1.1,14.1,30.7,22,32.3,40.3C436.8,280.2,424.6,288.4,410.8,288.4z"/>
		<path d="M445.6,232.8c0-3.3-2.4-6-5.5-6.5v-0.8l22.8-3.3c0.1,0,0.3,0,0.4,0c1.3,0,2.3,0.9,2.3,2.3v55.9c0,3.2,2.4,6,5.5,6.5v0.8
			h-31v-0.8c3.1-0.5,5.5-3.3,5.5-6.5V232.8z M455.6,214.9c-5.7,0-10.3-4.7-10.3-10.3c0-5.7,4.5-10.4,10.3-10.4
			c5.7,0,10.4,4.7,10.4,10.4C466,210.3,461.4,214.9,455.6,214.9z"/>
		<path d="M530.6,272.1l0.7,0.4c-5.3,9.6-14.9,15.9-25.8,15.9c-16.8,0-30.4-15.1-30.4-33.8c0-18.7,13.6-33.8,30.4-33.8
			c14.5,0,25.4,11.3,28.3,26.4h-12.4h-5.7h-20.6c0,17.6,9.7,31.9,21.8,31.9C522.1,279.1,526.9,276.5,530.6,272.1z M495.1,246.4h20.6
			c-0.8-16.6-4.3-24.8-10.1-24.8C496.3,221.6,495.3,241.9,495.1,246.4z"/>
		<path d="M565.6,288.4c-13.6,0-25.1-7.5-25.1-17.4c0-5.6,4.7-10.3,10.3-10.3c5.7,0,10.4,4.7,10.4,10.3c0,7.2-6.3,8.3-6.3,11.7
			c0,2,2.3,4,4.9,4.4c1.7,0.3,3.1,0.4,5.7,0.4c4.8,0,8.7-3.9,8.7-8.7c0-13.3-33.8-23.8-33.8-42.4c0-10.7,12.7-15.6,22.6-15.6
			c9.6,0,13.6,3.7,19.4,3.3c1.5-0.1,2.7-0.8,3.3-1.5h0.7v21.6c0,0-0.4,0-0.7,0c-1.6-8-5.5-20.7-18.4-22.4c-4.7-0.7-8.4,1.9-8.8,7.5
			c-1.1,14.1,30.7,22,32.3,40.3C591.6,280.2,579.5,288.4,565.6,288.4z"/>
	</g>
	<path class="st0" d="M282,122.4v4v2.8c0,0,0,18.4,0,29.2c6.4,0,16-8.4,20.4-12.4c1.6-1.6,2.7-3.7,2.7-6.1c0-0.8-0.1-1.6-0.3-2.4
		c-7.6-5.2-15.2-10.7-22.7-16.2V122.4z"/>
	<path class="st0" d="M88.9,133.6c-1.6,0-3.1,0.4-4.5,1.1v10.1v3.1v44.4v9.5c9.5-5.1,20.4-14,20.4-38.6
		C104.8,146.8,97.7,133.6,88.9,133.6z"/>
	<path class="st0" d="M150.2,174.2c-0.4,6.4,1.2,11.3,4,14.4c2.9,3.2,7.5,4,10.4,1.9v-16.7v-8v-8.9v-0.7
		C159.1,158.7,151,163,150.2,174.2z"/>
	<path class="st0" d="M456.2,78.9c0,47.2-38.3,85.5-85.5,85.5c-6.3,0-12.5-0.7-18.5-2c10.9,4.2,21.8,6.7,32.4,6.7
		c46.1,0,83.6-37.5,83.6-83.6c0-31.9-18-59.6-44.4-73.7C443.5,27.6,456.2,51.8,456.2,78.9z"/>
	<path d="M22.4,138.2c0.4-5.6,4.1-8.1,8.8-7.5c12.9,1.7,16.8,14.4,18.4,22.4c0.3,0,0.7,0,0.7,0v-21.6h-0.7c-0.7,0.7-1.9,1.3-3.3,1.5
		c-5.7,0.4-9.7-3.3-19.4-3.3c-9.9,0-22.6,4.9-22.6,15.6c0,18.7,33.8,29.1,33.8,42.4c0,4.8-3.9,8.7-8.7,8.7c-2.7,0-4-0.1-5.7-0.4
		c-2.7-0.4-4.9-2.4-4.9-4.4c0-3.5,6.3-4.5,6.3-11.7c0-5.6-4.7-10.3-10.4-10.3c-5.6,0-10.3,4.7-10.3,10.3c0,9.9,11.5,17.4,25.1,17.4
		c13.9,0,26-8.1,25.2-18.7C53.1,160.2,21.4,152.3,22.4,138.2z"/>
	<path d="M94,131c-3.6,0.4-6.8,1.5-9.6,2.9v-0.7c0-1.2-0.9-2.3-2.3-2.3c-0.1,0-0.3,0-0.4,0l-22.8,3.3v0.8c3.1,0.5,5.5,3.2,5.5,6.5
		v1.5v30.7v14.3v29.8v3.6c0,3.3-2.4,6-5.5,6.7v0.8h22.7c1.6,0,2.8-1.3,2.8-2.8V203c11.7-3.9,40.2-10.9,40.2-41
		C124.5,142,108.7,129.5,94,131z M84.4,201.8v-9.5v-44.4v-3.1v-10.1c1.5-0.7,2.9-1.1,4.5-1.1c8.8,0,15.9,13.2,15.9,29.6
		C104.8,187.8,93.8,196.8,84.4,201.8z"/>
	<path d="M184.7,186.5V185v-12.5v-4.7v-19.4v-2.3c0-6.5-4.4-11.1-9.5-13.6c-5.1-2.7-11.7-3.6-18.7-2.5c-9.5,1.3-22.4,8.3-22.4,18.7
		c0,5.7,4.5,10.3,10.3,10.3c5.7,0,10.4-4.5,10.4-10.3c0-6.1-5.7-7.9-5.7-12.8c0-2.8,2.8-4.4,7.6-5.1c6.5-1.1,12.9-0.1,18.2,2.4
		c4.3,2.1,7.9,6,7.9,9.6c0,10.3-31.2,14.8-42.7,22c-7.3,4.5-11.6,12.4-9.5,20c2,7.5,9.5,12.3,17.9,12.3c7.5,0,12.9-3.3,16.2-5.7v2.1
		v1.2c0,1.3,1.1,2.4,2.4,2.4c0.1,0,0.3,0,0.3,0l23-3.3V193C187.1,192.5,184.7,189.7,184.7,186.5z M164.6,156.9v8.9v8v16.7
		c-2.9,2.1-7.5,1.3-10.4-1.9c-2.8-3.1-4.4-8-4-14.4c0.8-11.2,8.9-15.5,14.4-18V156.9z"/>
	<path d="M462.2,52.7c-4.1-10-10.3-19-18-26.7c-7.1-7.1-15.3-12.8-24.4-17c1.3,0.9,2.6,1.9,3.9,2.9c26.4,14,44.4,41.8,44.4,73.7
		c0,46-37.5,83.6-83.6,83.6c-10.6,0-21.5-2.5-32.4-6.7c-3.1-0.7-6.2-1.5-9.2-2.6c13.6,6.2,27.5,10.1,41.6,10.1
		c11.5,0,22.4-2.3,32.8-6.7c10-4.3,19.1-10.3,26.8-18c7.7-7.7,13.9-16.8,18-26.8c4.4-10.4,6.7-21.5,6.7-32.8S466.7,63.2,462.2,52.7z
		"/>
	<path d="M196.9,63c-9.6,0-18.7,3.7-25.5,10.5c-6.8,6.8-10.5,15.9-10.5,25.5s3.7,18.7,10.5,25.5c6.8,6.7,15.9,10.5,25.5,10.5
		c3.2,0,5.5,3.2,5.5,6.5v1.5v7.6v29.5v8.9c0,3.2-2.4,6-5.5,6.5v0.8h31v-0.8c-3.1-0.5-5.5-3.3-5.5-6.5v-8.9v-30v-15.5
		c5.3-2.7,7.9-2,7.1,1.7c-0.1,0.7-0.3,1.5-0.3,2.1c0,5.7,4.7,10.4,10.3,10.4c5.7,0,10.4-4.7,10.4-10.4c0-5.7-4.7-10-10.4-10.3
		c-5.2-0.3-12.3,3.1-17.1,5.5v-0.5c0-1.3-0.9-2.3-2.3-2.3c-1.6,0-17.8,3.3-23.2,3.3c-19.4,0-35.2-15.9-35.2-35.2
		c0-11.5,16.3-25.4,38.6-21.8c19.9,3.3,39.8,14.8,60,28.6l6.3-0.9C239.9,82.6,216.9,63,196.9,63z"/>
	<path d="M343,159.9c-8.6-3.9-17.2-8.7-25.7-14.1C324.9,151.9,333.6,156.7,343,159.9z"/>
	<path class="st1" d="M153.3,241.2c-10.5,0-13.4,2.8-13.4,13.4c0-10.5-2.8-13.4-13.4-13.4c10.5,0,13.4-2.8,13.4-13.4
		C140,238.3,142.8,241.2,153.3,241.2z"/>
	<path d="M426.4,14.1C426.4,14.1,426.4,14.1,426.4,14.1c0.4-0.4,0.5-1.1-0.1-1.5c-12.4-8.2-22.5-8.2-22.5-8.2c0,0,0,0,0,0
		c20.8,14.6,34.4,38.7,34.6,66c0.3,44.3-35.4,80.9-79.6,81.8c-17.3,0.4-33.4-4.7-46.7-13.6c0,0,0,0,0,0c4.5-3.6,9.2-6.4,14.1-6.9
		c0-0.4,0-0.8,0-0.8h-27.2h0c-3.5-2.6-6.9-5.2-10.3-7.9c-2.2-1.7-4.4-3.5-6.5-5.2c0,0,0,0,0,0v0v-12.4c0-1.3-0.9-2.4-2.3-2.4
		c-0.1,0-0.3,0-0.4,0l-12.9,1.9l-6.3,0.9l-3.6,0.5v0.8c3.1,0.5,5.5,3.3,5.5,6.5v1.5v7.7v4.8v2.5v25.4v29.8v3.7c0,3.2-2.4,6-5.5,6.5
		v0.8h31v-0.8c-3.1-0.5-5.5-3.3-5.5-6.5v-3.7v-2.1c0,0,0-21.8,0-24c4.3,3.6,9.3,22.3,14,31.9c1.9,4,3.6,5.3,5.7,5.3h24.3v-0.8
		c-2.4,0-4.7-1.1-6.4-2.9c-8.4-8.9-14.5-38.3-20.6-42.7c3.4-3,6.9-6.3,10.4-9.3h0c2.6,1.7,5.2,3.4,7.8,5
		c8.5,5.4,17.1,10.2,25.7,14.1c0,0,0,0,0,0c3,1,6,1.9,9.2,2.6c6,1.3,12.1,2,18.5,2c47.2,0,85.5-38.3,85.5-85.5
		C456.2,53,444.6,29.8,426.4,14.1z M305.1,139.9c0,2.4-1.1,4.5-2.7,6.1c-4.4,4-14,12.4-20.4,12.4c0-10.8,0-29.2,0-29.2v-2.8v-4v-1v0
		c0,0,0,0,0,0c7.5,5.5,15.1,10.9,22.7,16.2C305,138.3,305.1,139.1,305.1,139.9z"/>
	<path d="M421,20.7"/>
	<g>
		<path class="st2" d="M229.7,304.9v10.6h-1.1v-4.9H222v4.9h-1.1v-10.6h1.1v4.7h6.6v-4.7H229.7z"/>
		<path class="st2" d="M242.8,312.7h-5.9l-1.3,2.8h-1.2l4.8-10.6h1.1l4.8,10.6H244L242.8,312.7z M242.4,311.7l-2.5-5.7l-2.5,5.7
			H242.4z"/>
		<path class="st2" d="M258.8,304.9v10.6h-0.9l-6.8-8.6v8.6H250v-10.6h0.9l6.8,8.6v-8.6H258.8z"/>
		<path class="st2" d="M265.3,304.9h4.3c3.4,0,5.7,2.2,5.7,5.3c0,3.1-2.3,5.3-5.7,5.3h-4.3V304.9z M269.5,314.5
			c2.8,0,4.6-1.8,4.6-4.3c0-2.5-1.8-4.3-4.6-4.3h-3.1v8.6H269.5z"/>
		<path class="st2" d="M279.8,310.2c0-3.1,2.4-5.4,5.5-5.4c1.5,0,2.9,0.5,3.9,1.5l-0.7,0.7c-0.9-0.9-1.9-1.3-3.1-1.3
			c-2.6,0-4.5,1.9-4.5,4.4s1.9,4.4,4.5,4.4c1.2,0,2.3-0.4,3.1-1.3l0.7,0.7c-0.9,1-2.3,1.6-3.9,1.6
			C282.2,315.6,279.8,313.3,279.8,310.2z"/>
		<path class="st2" d="M301.8,315.5l-2.4-3.4c-0.3,0-0.5,0-0.8,0h-2.8v3.4h-1.1v-10.6h4c2.7,0,4.3,1.4,4.3,3.6
			c0,1.7-0.9,2.8-2.4,3.3l2.6,3.6H301.8z M301.8,308.5c0-1.7-1.1-2.7-3.2-2.7h-2.8v5.3h2.8C300.7,311.2,301.8,310.2,301.8,308.5z"/>
		<path class="st2" d="M315.2,312.7h-5.9l-1.3,2.8h-1.2l4.8-10.6h1.1l4.8,10.6h-1.2L315.2,312.7z M314.8,311.7l-2.5-5.7l-2.5,5.7
			H314.8z"/>
		<path class="st2" d="M323.5,305.9v4.2h5.5v1h-5.5v4.5h-1.1v-10.6h7.2v1H323.5z"/>
		<path class="st2" d="M337.1,305.9h-3.7v-1h8.5v1h-3.7v9.6h-1.1V305.9z"/>
		<path class="st2" d="M354.2,314.5v1h-7.5v-10.6h7.2v1h-6.1v3.8h5.5v1h-5.5v3.9H354.2z"/>
		<path class="st2" d="M359.8,304.9h4.3c3.4,0,5.7,2.2,5.7,5.3c0,3.1-2.3,5.3-5.7,5.3h-4.3V304.9z M364.1,314.5
			c2.8,0,4.6-1.8,4.6-4.3c0-2.5-1.8-4.3-4.6-4.3H361v8.6H364.1z"/>
	</g>
	<g>
		<path class="st2" d="M396.4,310.2c0-3.1,2.4-5.4,5.5-5.4c1.5,0,2.9,0.5,3.9,1.5l-0.7,0.7c-0.9-0.9-1.9-1.3-3.1-1.3
			c-2.6,0-4.5,1.9-4.5,4.4s1.9,4.4,4.5,4.4c1.2,0,2.3-0.4,3.1-1.3l0.7,0.7c-0.9,1-2.3,1.6-3.9,1.6
			C398.8,315.6,396.4,313.3,396.4,310.2z"/>
		<path class="st2" d="M417.6,312.7h-5.9l-1.3,2.8h-1.2l4.8-10.6h1.1l4.8,10.6h-1.2L417.6,312.7z M417.2,311.7l-2.5-5.7l-2.5,5.7
			H417.2z"/>
		<path class="st2" d="M433.6,304.9v10.6h-0.9l-6.8-8.6v8.6h-1.1v-10.6h0.9l6.8,8.6v-8.6H433.6z"/>
		<path class="st2" d="M440.1,304.9h4.3c3.4,0,5.7,2.2,5.7,5.3c0,3.1-2.3,5.3-5.7,5.3h-4.3V304.9z M444.3,314.5
			c2.8,0,4.6-1.8,4.6-4.3c0-2.5-1.8-4.3-4.6-4.3h-3.1v8.6H444.3z"/>
		<path class="st2" d="M455.6,304.9h1.1v9.6h5.9v1h-7V304.9z"/>
		<path class="st2" d="M474.9,314.5v1h-7.5v-10.6h7.2v1h-6.1v3.8h5.5v1h-5.5v3.9H474.9z"/>
		<path class="st2" d="M479.6,314.2l0.4-0.9c0.8,0.7,2.1,1.3,3.5,1.3c2,0,2.8-0.8,2.8-1.9c0-2.9-6.5-1.1-6.5-5
			c0-1.6,1.2-2.9,3.9-2.9c1.2,0,2.4,0.3,3.3,0.9l-0.4,0.9c-0.9-0.6-2-0.9-2.9-0.9c-1.9,0-2.8,0.9-2.8,1.9c0,2.9,6.5,1.1,6.5,5
			c0,1.6-1.2,2.9-3.9,2.9C481.9,315.6,480.4,315,479.6,314.2z"/>
	</g>
</g>
</svg>
