<?xml version="1.0" encoding="utf-8"?>
<!-- Generator: Adobe Illustrator 27.1.1, SVG Export Plug-In . SVG Version: 6.00 Build 0)  -->
<svg version="1.1" id="Layer_1" xmlns="http://www.w3.org/2000/svg" xmlns:xlink="http://www.w3.org/1999/xlink" x="0px" y="0px"
	 viewBox="0 0 248.8 362.1" style="enable-background:new 0 0 248.8 362.1;" xml:space="preserve">
<style type="text/css">
	.st0{fill:#010101;}
	.st1{fill:none;stroke:#010101;stroke-width:3;stroke-miterlimit:10;}
</style>
<g>
	<g>
		<g>
			<path class="st0" d="M1414.4,2953.5c-26.5,0-48.9-14.1-48.9-32.5c0-11.1,9-20.1,20.1-20.1c11.1,0,20.1,9,20.1,20.1
				c0,14.1-12.4,16.2-11.1,23.3c0.9,4.7,7.5,8.1,19.8,8.1c9.6,0,19-7.7,19-17.9c0-28.4-67.9-46.7-67.9-82
				c0-22.6,27.5-30.7,47.8-30.7c12,0,19.9,2.6,30.5,2.6c4.1,0,7.7-0.6,10.2-2.6h1.1v35.6c0,0-0.6,0-1.1,0
				c-3-15.8-16.7-34.2-36.1-34.2c-9.6,0-18.2,4.5-19,15.8c-2.1,29.3,61.5,43.1,64.7,78.3C1465.2,2937.5,1441.5,2953.5,1414.4,2953.5
				z"/>
		</g>
		<g>
			<path class="st0" d="M1498.3,2924.1v35.6h-1.1c-5.1-19.8-23.1-34.4-44.6-34.4h-1.9v64.1c13.7,0,25.2-9.4,28.6-22h1.1v45.1h-1.1
				c-3.4-12.6-14.9-22-28.6-22v45.1v7.7c0,6.2,5.1,11.3,11.5,11.3v1.1h-55.9v-1.1c6.2,0,11.3-5.1,11.3-11.3v-106.8
				c0-6.2-5.1-11.3-11.3-11.3v-1.1h53.6H1498.3z"/>
		</g>
		<path class="st0" d="M1509,2990.5c-13.7,0-25.2,9.4-28.6,22h-1.1v-45.1h1.1c3.4,12.6,14.9,22,28.6,22"/>
	</g>
	<path class="st1" d="M1437.3,3116L1437.3,3116c-60,0-109.2-49.1-109.2-109.2v-133.3c0-60,49.1-109.2,109.2-109.2h0
		c60,0,109.2,49.1,109.2,109.2v133.3C1546.4,3066.8,1497.3,3116,1437.3,3116z"/>
</g>
<g>
	<g>
		<g>
			<path class="st0" d="M101.6,194.4c-26.5,0-48.9-14.1-48.9-32.5c0-11.1,9-20.1,20.1-20.1s20.1,9,20.1,20.1
				c0,14.1-12.4,16.2-11.1,23.3c0.9,4.7,7.5,8.1,19.8,8.1c9.6,0,19-7.7,19-17.9c0-28.4-67.9-46.7-67.9-82
				c0-22.6,27.5-30.7,47.8-30.7c12,0,19.9,2.6,30.5,2.6c4.1,0,7.7-0.6,10.2-2.6h1.1v35.6c0,0-0.6,0-1.1,0
				c-3-15.8-16.7-34.2-36.1-34.2c-9.6,0-18.2,4.5-19,15.8c-2.1,29.3,61.5,43.1,64.7,78.3C152.3,178.4,128.6,194.4,101.6,194.4z"/>
		</g>
		<g>
			<path class="st0" d="M185.4,165.1v35.6h-1.1c-5.1-19.8-23.1-34.4-44.6-34.4h-1.9v64.1c13.7,0,25.2-9.4,28.6-22h1.1v45.1h-1.1
				c-3.4-12.6-14.9-22-28.6-22v45.1v7.7c0,6.2,5.1,11.3,11.5,11.3v1.1H93.5v-1.1c6.2,0,11.3-5.1,11.3-11.3V177.5
				c0-6.2-5.1-11.3-11.3-11.3v-1.1h53.6H185.4z"/>
		</g>
		<path class="st0" d="M196.1,231.5c-13.7,0-25.2,9.4-28.6,22h-1.1v-45.1h1.1c3.4,12.6,14.9,22,28.6,22"/>
	</g>
	<path class="st1" d="M124.4,356.9L124.4,356.9c-60,0-109.2-49.1-109.2-109.2V114.4c0-60,49.1-109.2,109.2-109.2h0
		c60,0,109.2,49.1,109.2,109.2v133.3C233.6,307.8,184.4,356.9,124.4,356.9z"/>
</g>
</svg>
